<svg width="26" height="20" viewBox="0 0 26 20" fill="none" xmlns="http://www.w3.org/2000/svg">
<path d="M15.957 0.0126953C21.2406 0.28061 25.4424 4.64981 25.4424 10L25.4297 10.5146C25.1618 15.7983 20.7925 19.9999 15.4424 20L14.9277 19.9873C13.8081 19.9305 12.737 19.6894 11.7441 19.2939L4.7959 16.9043L4.92383 16.8887C2.17228 15.9484 0.163405 13.406 0.00976562 10.374L0 10C0.000174303 6.72447 2.16438 3.95464 5.14062 3.04102L8.17578 1.96875C8.38908 1.88408 8.6059 1.80605 8.82715 1.73828L11.6328 0.748047L11.6426 0.749023C12.8142 0.267265 14.097 0 15.4424 0L15.957 0.0126953ZM15.4424 1.36035C14.7392 1.36035 14.0559 1.44594 13.4014 1.60449C17.1878 2.52149 20.0009 5.93174 20.001 10L19.9893 10.4443C19.7931 14.314 17.0499 17.5102 13.4033 18.3945C14.0573 18.5528 14.7398 18.6396 15.4424 18.6396C20.2137 18.6396 24.082 14.7714 24.082 10C24.082 5.22862 20.2137 1.36042 15.4424 1.36035ZM11.3613 2.7207C11.1545 2.7207 10.9495 2.73114 10.7471 2.74805C10.5012 2.90754 10.2639 3.07876 10.0361 3.26172C12.6889 4.34834 14.5575 6.95599 14.5576 10L14.5479 10.374C14.4018 13.2562 12.5792 15.6954 10.0361 16.7373C10.2639 16.9203 10.5012 17.0915 10.7471 17.251C10.9495 17.2679 11.1545 17.2783 11.3613 17.2783C15.381 17.278 18.6395 14.0197 18.6396 10C18.6395 5.98028 15.381 2.72104 11.3613 2.7207ZM8.93652 4.31836C7.60879 5.83742 6.80273 7.82405 6.80273 10C6.80274 12.1757 7.60907 14.1617 8.93652 15.6807C11.3979 14.9636 13.1971 12.6928 13.1973 10C13.1971 7.30713 11.398 5.03544 8.93652 4.31836Z" fill="#262626"/>
</svg>
